<?xml version="1.0" encoding="utf-8"?>
<!-- Generator: Adobe Illustrator 18.1.1, SVG Export Plug-In . SVG Version: 6.00 Build 0)  -->
<!DOCTYPE svg PUBLIC "-//W3C//DTD SVG 1.1//EN" "http://www.w3.org/Graphics/SVG/1.1/DTD/svg11.dtd">
<svg version="1.1" id="Layer_1" xmlns:sketch="http://www.bohemiancoding.com/sketch/ns"
	 xmlns="http://www.w3.org/2000/svg" xmlns:xlink="http://www.w3.org/1999/xlink" x="0px" y="0px" viewBox="-762 1820 202 34"
	 enable-background="new -762 1820 202 34" xml:space="preserve">
<title>Slice 2</title>
<desc>Created with Sketch.</desc>
<path id="Fill-1" sketch:type="MSShapeGroup" fill="#FFFFFF" d="M-713.7,1847.5v-21.2h3.7v17.9h9.3v3.3H-713.7"/>
<path id="Fill-2" sketch:type="MSShapeGroup" fill="#FFFFFF" d="M-687.8,1847.5v-2c-1.1,1.2-3,2.4-5.4,2.4c-3.3,0-4.9-1.7-4.9-4.9
	v-10.9h3.3v9.7c0,2.4,1.2,3.1,3.1,3.1c1.7,0,3.1-1,3.9-2v-10.8h3.3v15.3H-687.8"/>
<path id="Fill-3" sketch:type="MSShapeGroup" fill="#FFFFFF" d="M-681.4,1839.9c0-4.6,3.3-8,7.9-8c3,0,4.8,1.3,5.9,2.7l-2.2,2
	c-0.9-1.2-2-1.8-3.5-1.8c-2.8,0-4.6,2.1-4.6,5.1s1.8,5.1,4.6,5.1c1.5,0,2.7-0.6,3.5-1.8l2.2,2c-1.1,1.5-2.9,2.7-5.9,2.7
	C-678.2,1847.9-681.4,1844.5-681.4,1839.9"/>
<path id="Fill-4" sketch:type="MSShapeGroup" fill="#FFFFFF" d="M-665.7,1828.3c0-1.1,1-2.1,2.1-2.1c1.1,0,2.1,0.9,2.1,2.1
	c0,1.1-0.9,2.1-2.1,2.1C-664.8,1830.3-665.7,1829.4-665.7,1828.3L-665.7,1828.3z M-665.3,1832.2h3.3v15.3h-3.3V1832.2z"/>
<path id="Fill-5" sketch:type="MSShapeGroup" fill="#FFFFFF" d="M-647.3,1847.5v-2.1c-1.2,1.5-3,2.5-4.9,2.5c-3.9,0-6.8-3-6.8-8
	c0-5,2.9-8.1,6.8-8.1c1.9,0,3.7,0.9,4.9,2.5v-8h3.3v21.2H-647.3L-647.3,1847.5z M-647.3,1842.9v-6.1c-0.8-1.1-2.4-2.1-4-2.1
	c-2.6,0-4.3,2.1-4.3,5.1c0,3,1.7,5.1,4.3,5.1C-649.6,1845-648,1844.1-647.3,1842.9L-647.3,1842.9z"/>
<path id="Fill-6" sketch:type="MSShapeGroup" fill="#FFFFFF" d="M-626.5,1847.5l-3.6-11.2l-3.6,11.2h-3.5l-4.8-15.3h3.5l3.2,11.1
	l3.7-11.1h2.9l3.7,11.1l3.2-11.1h3.5l-4.8,15.3H-626.5"/>
<path id="Fill-7" sketch:type="MSShapeGroup" fill="#FFFFFF" d="M-617.5,1839.9c0-4.4,3-8,7.9-8c4.9,0,7.9,3.7,7.9,8
	c0,4.4-3,8.1-7.9,8.1C-614.5,1847.9-617.5,1844.3-617.5,1839.9L-617.5,1839.9z M-605.2,1839.9c0-2.7-1.6-5.1-4.4-5.1
	c-2.8,0-4.4,2.4-4.4,5.1c0,2.7,1.6,5.1,4.4,5.1C-606.8,1845-605.2,1842.6-605.2,1839.9L-605.2,1839.9z"/>
<path id="Fill-8" sketch:type="MSShapeGroup" fill="#FFFFFF" d="M-598.7,1847.5v-15.3h3.3v2.3c1.1-1.5,3-2.6,5-2.6v3.3
	c-0.3-0.1-0.6-0.1-1-0.1c-1.4,0-3.3,1-3.9,2v10.4H-598.7"/>
<path id="Fill-9" sketch:type="MSShapeGroup" fill="#FFFFFF" d="M-578.1,1847.5l-4.7-6.3l-2.1,2.2v4.1h-3.3v-21.2h3.3v13.2l6.8-7.4
	h4.1l-6.4,7l6.5,8.4H-578.1"/>
<path id="Fill-10" sketch:type="MSShapeGroup" fill="#FFFFFF" d="M-573,1845.5l1.5-2.4c1.1,1.1,3.2,2.2,5.2,2.2c2,0,3-0.9,3-2.1
	c0-3-9.3-0.9-9.3-6.7c0-2.5,2.2-4.7,6-4.7c2.6,0,4.6,0.9,6,2.2l-1.4,2.3c-0.9-1-2.6-1.8-4.5-1.8c-1.7,0-2.9,0.8-2.9,1.9
	c0,2.7,9.3,0.7,9.3,6.8c0,2.7-2.3,4.8-6.4,4.8C-569.1,1847.9-571.4,1847.1-573,1845.5"/>
<path id="Fill-11" sketch:type="MSShapeGroup" fill="#AE2028" d="M-730.3,1840.6l-20.3,4.5l-4.5-20.3l-6.9,1.5l6,27.2l27.2-6
	L-730.3,1840.6"/>
<path id="Fill-12" sketch:type="MSShapeGroup" fill="#DC3031" d="M-731.7,1834.2l-3.1-13.9l-13.9,3.1l3.1,13.9L-731.7,1834.2"/>
</svg>
